# xmcd
#
# Track frame offsets: 
#        150
#        15200
#        33050
#        46932
#        65832
#        79690
#        96267
#        105872
#        114280
#        123972
#        136480
#        165362
#        179420
#        190037
#        207497
#        220945
#        236102
#        246905
#        253937
#        268070
#        283955
#        299252
#        310205
#
# Disc length: 4346 seconds
#
# Revision: 0
# Processed by: cddbd v1.4PL0 Copyright (c) Steve Scherf et al.
# Submitted via: ExactAudioCopy v0.95a3
#
DISCID=4b10f817
DTITLE=Flying Burrito Brothers - Flying Burrito Brothers Country Rock
DYEAR=1900
DGENRE=Country
TTITLE0=Hot Burrito #2
TTITLE1=Do Right Women, Do Right Man
TTITLE2=Wheels
TTITLE3=Sin City
TTITLE4=Christine's Tune
TTITLE5=Hot Burrito #1
TTITLE6=God's Own Singer
TTITLE7=If You Gotta Go
TTITLE8=High Fashion Queen
TTITLE9=Cody, Cody
TTITLE10=Wild Horses
TTITLE11=The Trainsong
TTITLE12=Close Up The Honky Tonks
TTITLE13=Sing Me Back Home
TTITLE14=Bonie Moronie
TTITLE15=To Love Somebody
TTITLE16=Break My Mind
TTITLE17=Beat The Heat
TTITLE18=Did You See
TTITLE19=Here Tonight
TTITLE20=Money Honey
TTITLE21=Rollover Beethoven
TTITLE22=Wake Up Little Susie
EXTD=
EXTT0=
EXTT1=
EXTT2=
EXTT3=
EXTT4=
EXTT5=
EXTT6=
EXTT7=
EXTT8=
EXTT9=
EXTT10=
EXTT11=
EXTT12=
EXTT13=
EXTT14=
EXTT15=
EXTT16=
EXTT17=
EXTT18=
EXTT19=
EXTT20=
EXTT21=
EXTT22=
PLAYORDER=
